<?xml version="1.0" standalone="no"?><!DOCTYPE svg PUBLIC "-//W3C//DTD SVG 1.1//EN" "http://www.w3.org/Graphics/SVG/1.1/DTD/svg11.dtd"><svg t="1573179029306" class="icon" viewBox="0 0 1024 1024" version="1.1" xmlns="http://www.w3.org/2000/svg" p-id="1252" width="16" height="16" xmlns:xlink="http://www.w3.org/1999/xlink"><defs><style type="text/css"></style></defs><path d="M874.030545 149.969455c-199.959273-199.959273-524.101818-199.959273-724.06109 0-199.959273 199.959273-199.959273 524.101818 0 724.06109 199.959273 199.959273 524.101818 199.959273 724.06109 0 199.959273-199.959273 199.959273-524.101818 0-724.06109zM379.019636 742.493091a50.222545 50.222545 0 1 1-71.074909-70.935273 50.222545 50.222545 0 0 1 71.074909 70.935273z m219.229091 1.489454a41.332364 41.332364 0 0 1-81.733818-12.288h-0.046545a6.981818 6.981818 0 0 0-0.046546 0.325819v-0.372364c0.325818-2.792727 2.187636-22.109091-3.165091-47.988364a185.856 185.856 0 0 0-51.805091-95.232 183.575273 183.575273 0 0 0-94.72-51.525818 167.144727 167.144727 0 0 0-45.288727-3.118545 41.239273 41.239273 0 0 1-37.748364-69.678546 41.192727 41.192727 0 0 1 22.528-11.543272v-0.232728c4.747636-0.791273 118.551273-17.547636 213.690182 77.591273 94.952727 94.952727 79.127273 209.221818 78.336 214.109091z m186.88 8.09891a41.332364 41.332364 0 0 1-70.050909 22.807272 42.123636 42.123636 0 0 1-12.427636-35.979636c0.093091-0.372364 5.445818-39.982545-5.399273-94.906182-14.196364-71.866182-48.314182-135.354182-101.282909-188.695273-53.341091-53.015273-116.829091-87.086545-188.741818-101.282909-54.923636-10.845091-94.487273-5.538909-94.952727-5.492363h0.232727-0.046546a42.589091 42.589091 0 0 1-47.662545-35.095273 41.425455 41.425455 0 0 1 34.350545-47.336727c2.048-0.325818 51.060364-7.819636 118.690909 4.654545a439.202909 439.202909 0 0 1 113.338182 37.282909 454.144 454.144 0 0 1 122.274909 87.738182l0.977455 1.024 1.024 0.930909a454.283636 454.283636 0 0 1 87.738182 122.368c17.501091 35.84 30.021818 73.914182 37.329454 113.291636 12.427636 67.630545 4.980364 116.642909 4.608 118.69091z" p-id="1253" fill="#1296db"></path></svg>