<?xml version="1.0" standalone="no"?><!DOCTYPE svg PUBLIC "-//W3C//DTD SVG 1.1//EN" "http://www.w3.org/Graphics/SVG/1.1/DTD/svg11.dtd"><svg t="1573194714086" class="icon" viewBox="0 0 1024 1024" version="1.1" xmlns="http://www.w3.org/2000/svg" p-id="3611" width="16" height="16" xmlns:xlink="http://www.w3.org/1999/xlink"><defs><style type="text/css"></style></defs><path d="M512 141.21142578C308.06628417 141.21142578 141.21142578 308.06628417 141.21142578 512s166.8548584 370.78857422 370.78857422 370.78857422 370.78857422-166.8548584 370.78857422-370.78857422S715.93371583 141.21142578 512 141.21142578z m-59.32617188 170.56274414L512 263.57165527 569.47222901 308.06628417l5.5618286 3.70788575L512 363.68457031l-63.03405762-50.05645752 3.70788574-1.85394287zM363.68457031 382.22399902l148.31542969 116.79840088 148.31542969-116.79840087 40.78674317 31.5170288-187.24822999 148.31542969-187.24822998-148.31542969 37.07885742-31.51702881z m148.31542969 378.20434571L200.53759766 513.85394287l40.78674316-31.51702881L512 695.54034424l270.67565918-213.20343018 40.78674316 31.51702881L512 760.42834473z" fill="#006CFF" p-id="3612"></path></svg>