<?xml version="1.0" standalone="no"?><!DOCTYPE svg PUBLIC "-//W3C//DTD SVG 1.1//EN" "http://www.w3.org/Graphics/SVG/1.1/DTD/svg11.dtd"><svg t="1573194812286" class="icon" viewBox="0 0 1024 1024" version="1.1" xmlns="http://www.w3.org/2000/svg" p-id="5444" width="16" height="16" xmlns:xlink="http://www.w3.org/1999/xlink"><defs><style type="text/css"></style></defs><path d="M284.047 336.195l50.473-75.341 21.484 27.018 30.249-49.454 47.145 88.315v-94.894H232.412v133.135h200.996v-28.861l-149.36 0.082z m-28.436-77.271c-0.03-9.585 7.665-17.393 17.208-17.429a17.372 17.372 0 0 1 17.424 17.25 17.331 17.331 0 0 1-17.25 17.392h-0.184a17.213 17.213 0 0 1-17.198-17.213z m397.517-5.023H803.47v-22.052H653.128v22.052z m0 41.86H803.47v-21.995H653.128v21.996z m0-83.675H803.47v-22.042H653.128v22.042zM457.677 253.9h170.388v-22.052H457.677v22.052z m0 41.86h170.388v-21.995H457.677v21.996z m0-83.675h170.388v-22.042H457.677v22.042zM232.12 779.249h395.945v-22.042H232.12v22.042z m0 41.932h395.945v-22.097H232.12v22.097z m0-83.732h395.945v-22.031H232.12v22.031z m421.008 41.8H803.47v-22.042H653.128v22.042z m0 41.932H803.47v-22.097H653.128v22.097z m0-83.732H803.47v-22.031H653.128v22.031zM245.084 190.044a17.4 17.4 0 0 1 3.65 0c1 0.225 1.977 0.589 2.858 1.142a5.951 5.951 0 0 1 1.776 2.17 6.993 6.993 0 0 1 0.604 3.247 6.02 6.02 0 0 1-0.91 3.528 7.496 7.496 0 0 1-2.883 2.345c1.607 0.358 2.985 1.29 3.88 2.616a8.294 8.294 0 0 1 0.784 8.417 6.554 6.554 0 0 1-2.248 2.499c-0.947 0.716-2.022 1.188-3.17 1.454a13.307 13.307 0 0 1-3.63 0.486H231.63v-27.904h13.455z m-0.742 11.254a4.321 4.321 0 0 0 2.688-0.753 3 3 0 0 0 0.993-2.56 3.456 3.456 0 0 0 0-1.618 2.243 2.243 0 0 0-0.916-0.911 3.23 3.23 0 0 0-1.403-0.553h-7.358v6.492l5.996-0.097z m0 11.914a5 5 0 0 0 1.746 0 4.163 4.163 0 0 0 1.418-0.512c0.425-0.307 0.768-0.717 0.983-1.188a3.645 3.645 0 0 0 0.404-1.761 3.564 3.564 0 0 0-1.254-3.113 4.94 4.94 0 0 0-3.164-0.901h-6.743v7.716l6.61-0.24z m21.074 10.276a7.844 7.844 0 0 1-4.485 0.978h-3.395v-4.588h3.246a2.11 2.11 0 0 0 1.644-0.865 2.698 2.698 0 0 0 0.527-1.633 3.154 3.154 0 0 0 0-1.24l-7.117-19.005h5.955l4.551 13.855 3.948-13.803h5.796l-8.505 22.737a6.407 6.407 0 0 1-2.165 3.564z m28.073-26.296l-2.478 3.732h-4.091v10.358a1.869 1.869 0 0 0 2.314 2.35h1.777v4.311h-2.955c-0.819 0.061-1.643 0.061-2.462 0a4.096 4.096 0 0 1-2.007-0.722 2.826 2.826 0 0 1-1.378-1.372 4.7 4.7 0 0 1-0.553-2.442v-12.483h-3.64v-3.732h3.308v-3.134l5.58-2.672v5.806h6.585z m35.553-7.148c1.7-0.061 3.425 0.246 5.023 0.814a10.013 10.013 0 0 1 4.04 2.57c1.203 1.209 2.114 2.683 2.708 4.327 0.65 1.971 0.957 4.014 0.932 6.118a18.083 18.083 0 0 1-0.784 5.566 12.083 12.083 0 0 1-2.406 4.485 9.912 9.912 0 0 1-3.948 2.913 12.206 12.206 0 0 1-5.565 1.09h-12.35V190.03l12.35 0.015z m-0.379 22.743a8.513 8.513 0 0 0 2.55 0 6.605 6.605 0 0 0 3.789-4.05c0.42-1.27 0.65-2.61 0.614-3.932 0.01-1.285-0.148-2.56-0.466-3.799a7.03 7.03 0 0 0-1.306-2.939 5.222 5.222 0 0 0-2.483-1.869 9.728 9.728 0 0 0-3.845-0.624h-4.331v17.556l5.478-0.343z m75.602-2.81a4.623 4.623 0 0 1-4.26 3.783c-4.316 0-4.633-5.693-4.633-5.693a8.909 8.909 0 0 1 0-1.48s0-5.663 4.633-5.704a4.598 4.598 0 0 1 4.26 3.748h5.171a9.62 9.62 0 0 0-9.656-7.72 9.846 9.846 0 0 0-9.907 9.184 17.997 17.997 0 0 0 0 2.878 9.83 9.83 0 0 0 9.907 9.17 9.431 9.431 0 0 0 9.656-7.7l-5.171-0.467z m25.062-1.301h2.775c0.082-0.952 0.082-1.895 0-2.806a9.718 9.718 0 0 0-9.907-9.498 9.728 9.728 0 0 0-9.887 9.186 13.414 13.414 0 0 0 0 2.867 9.682 9.682 0 0 0 9.887 9.185 9.482 9.482 0 0 0 9.447-6.717h-5.648a4.29 4.29 0 0 1-3.804 2.56c-3.394 0-4.321-3.64-4.552-5.14h11.91l-0.22 0.363z m-7.751-7.752c2.867 0 3.963 2.627 4.418 4.321h-8.427c0.45-1.776 1.546-4.32 4.398-4.372l-0.39 0.051z m-110.464 7.752h2.805c0.047-0.952 0.047-1.895 0-2.806a9.836 9.836 0 0 0-9.927-9.498 9.743 9.743 0 0 0-9.805 9.186 13.414 13.414 0 0 0 0 2.867 9.692 9.692 0 0 0 9.805 9.185 9.318 9.318 0 0 0 9.364-6.717h-5.632a4.132 4.132 0 0 1-3.804 2.56c-3.405 0-4.321-3.64-4.536-5.14h11.878l-0.148 0.363z m-7.747-7.752a4.823 4.823 0 0 1 4.398 4.321h-8.386c0.435-1.776 1.827-4.32 4.372-4.372l-0.384 0.051z m61.2-3.41h-5.99a13.179 13.179 0 0 0-4.179-0.855 9.743 9.743 0 0 0-9.723 9.2 13.414 13.414 0 0 0 0 2.868 9.764 9.764 0 0 0 9.723 9.2 10.291 10.291 0 0 0 5.182-1.402l4.986 1.403v-20.414z m-10.169 16.246c-4.25 0-4.552-5.693-4.552-5.693a5.955 5.955 0 0 1 0-1.48s0-5.663 4.552-5.704c4.178 0 4.547 5.704 4.547 5.704v1.48c0 0.005-0.369 5.611-4.547 5.693z m32.4-10.829a7.168 7.168 0 0 0-6.575-6.267 7.67 7.67 0 0 0-6.4 2.58l-5.882-1.735v20.429h5.478v-11.679c0-5.78 4.634-5.34 4.634-5.34 3.491 0 3.261 4.751 3.261 4.751v12.268h5.545V205.67c0.005-1.53-0.061-2.739-0.061-2.739z" fill="#DBDCDC" p-id="5445"></path><path d="M1011.876 506.02c0-99.676-29.317-192.456-79.616-270.423L63.309 287.032C31.007 353.172 12.82 427.448 12.82 506.02c0 99.44 29.19 192.051 79.284 269.9l870.768-53.918c31.396-65.382 49.004-138.624 49.004-215.982" fill="#E62318" p-id="5446"></path><path d="M828.211 556.529v-37.387l-118.128 6.697v-18.78l-56.955 3.236v18.806l-118.15 6.727v37.3l118.15-6.62v82.324l56.955-3.261v-82.29z" fill="#FFFFFF" p-id="5447"></path><path d="M534.927 487.583v37.325l40.561-2.31v-0.082l104.689-51.563 106.987 39.444v0.16l41.052-2.407v-37.36l-27.361 1.566-70.646-26.05 93.594-46.091v-64.701l-56.97 3.246-131.037 7.403v-0.046l-45.45-21.663-58.04 92.227 48.143 17.49 30.997-49.24 155.387-8.81v9.005l-86.738 42.68-67.323-24.831-22.728 34.713 40.044 14.802-68.188 33.557-26.973 1.536z m262.523 81.69l-56.985 3.179 41.605 69.058 56.883-3.22-41.503-69.018z m-262.297 86.39l56.97-3.17 37.954-73.62-56.975 3.271-37.95 73.518z m-135.373-83.83l45.056 88.458 63.083-3.262-45.071-88.381-63.068 3.184zM340.577 507.1l-46.09-58.02-62.858 3.564 46.013 57.984 62.935-3.528z m0-72.473l-46.09-57.97-62.858 3.452 46.013 58.07 62.935-3.552z" fill="#FFFFFF" p-id="5448"></path><path d="M394.834 561.562l105.226-5.98v-37.3l-69.898 3.927V357.852l-56.975 3.164V525.45l-166.36 9.508v37.34l115.723-6.528-51.257 67.43-62.93 3.661v37.34l105.6-6.102v-0.139z" fill="#FFFFFF" p-id="5449"></path><path d="M513.188 18.299c274.447 0 497.725 223.278 497.725 497.73S787.635 1013.76 513.188 1013.76 15.462 790.482 15.462 516.03 238.74 18.298 513.188 18.298m0-10.24c-280.545 0-507.97 227.42-507.97 507.97C5.221 796.57 232.642 1024 513.187 1024c280.54 0 507.965-227.43 507.965-507.97 0-280.546-227.425-507.971-507.965-507.971z" fill="#D8D8D8" p-id="5450"></path></svg>