<?xml version="1.0" standalone="no"?><!DOCTYPE svg PUBLIC "-//W3C//DTD SVG 1.1//EN" "http://www.w3.org/Graphics/SVG/1.1/DTD/svg11.dtd"><svg t="1573183852715" class="icon" viewBox="0 0 1024 1024" version="1.1" xmlns="http://www.w3.org/2000/svg" p-id="3221" xmlns:xlink="http://www.w3.org/1999/xlink" width="16" height="16"><defs><style type="text/css"></style></defs><path d="M579.8 511.865c-11.667 0-23.34 10.836-23.34 24.175 0 10.837 11.667 21.675 23.34 21.675 17.513 0 30.017-10.838 30.017-21.675 0-13.338-12.504-24.175-30.016-24.175zM503.1 399.308c18.342 0 30.016-11.668 30.016-29.182 0-18.342-11.673-29.179-30.016-29.179-17.508 0-34.184 10.838-34.184 29.18 0 17.514 16.676 29.18 34.184 29.18zM512.269 0.56C229.653 0.56 0.55 229.663 0.55 512.281 0.549 794.897 229.652 1024 512.269 1024c282.616 0 511.72-229.103 511.72-511.719 0-282.618-229.103-511.72-511.72-511.72z m-96.71 641.364c-30.852 0-53.362-4.999-82.543-13.339L248.81 671.11l24.182-71.705c-59.195-41.683-94.216-94.21-94.216-158.408 0-113.388 106.719-200.097 236.784-200.097 115.053 0 217.604 68.368 237.612 165.084-8.336-1.672-15.842-2.501-22.51-2.501-113.389 0-200.928 85.038-200.928 187.589 0 17.506 2.501 33.346 6.67 50.024-6.67 0.829-14.176 0.829-20.846 0.829z m347.667 81.706l16.672 60.032-63.363-35.85c-24.176 4.999-47.523 12.504-71.7 12.504-111.721 0-200.096-76.702-200.096-171.747 0-95.045 88.376-171.748 200.097-171.748 105.882 0 200.927 76.703 200.927 171.748 0 53.355-35.85 100.878-82.537 135.06zM338.02 340.947c-17.508 0-35.85 10.838-35.85 29.18 0 17.513 18.342 29.186 35.85 29.186 16.677 0 30.016-11.673 30.016-29.187 0-18.341-13.34-29.179-30.016-29.179z m372.681 170.918c-12.508 0-23.346 10.836-23.346 24.175 0 10.837 10.838 21.675 23.346 21.675 16.672 0 29.18-10.838 29.18-21.675 0-13.338-12.508-24.175-29.18-24.175z m0 0" fill="#4CB202" p-id="3222"></path></svg>