<?xml version="1.0" standalone="no"?><!DOCTYPE svg PUBLIC "-//W3C//DTD SVG 1.1//EN" "http://www.w3.org/Graphics/SVG/1.1/DTD/svg11.dtd"><svg t="1573140140172" class="icon" viewBox="0 0 1024 1024" version="1.1" xmlns="http://www.w3.org/2000/svg" p-id="2736" xmlns:xlink="http://www.w3.org/1999/xlink" width="16" height="16"><defs><style type="text/css"></style></defs><path d="M0 0m102.4 0l819.2 0q102.4 0 102.4 102.4l0 819.2q0 102.4-102.4 102.4l-819.2 0q-102.4 0-102.4-102.4l0-819.2q0-102.4 102.4-102.4Z" fill="#F3F2AE" p-id="2737"></path><path d="M174.08 0h40.96v112.64h-40.96z" fill="#AEE7F3" p-id="2738"></path><path d="M378.88 0h40.96v112.64h-40.96z" fill="#AEE7F3" p-id="2739"></path><path d="M583.68 0h40.96v112.64h-40.96z" fill="#AEE7F3" p-id="2740"></path><path d="M798.72 0h40.96v112.64h-40.96z" fill="#AEE7F3" p-id="2741"></path><path d="M0 307.2h1024v10.24H0z" fill="#ECDF90" p-id="2742"></path><path d="M0 481.28h1024v10.24H0z" fill="#ECDF90" p-id="2743"></path><path d="M0 655.36h1024v10.24H0z" fill="#ECDF90" p-id="2744"></path><path d="M0 829.44h1024v10.24H0z" fill="#ECDF90" p-id="2745"></path><path d="M163.84 194.56h10.24v829.44h-10.24z" fill="#D79D6E" p-id="2746"></path><path d="M215.04 194.56h10.24v829.44h-10.24z" fill="#D79D6E" p-id="2747"></path><path d="M194.59072 81.92a61.44 61.44 0 1 1-61.44 61.44 61.44 61.44 0 0 1 61.44-61.44z m204.8 0a61.44 61.44 0 1 1-61.44 61.44 61.44 61.44 0 0 1 61.44-61.44z m204.8 0a61.44 61.44 0 1 1-61.44 61.44 61.44 61.44 0 0 1 61.44-61.44z m215.04 0a61.44 61.44 0 1 1-61.44 61.44 61.44 61.44 0 0 1 61.44-61.44z" fill="#AEE7F3" p-id="2748"></path><path d="M879.55456 273.26464l35.39968 26.79808a51.13856 51.13856 0 0 1 9.71776 72.15104l-18.05312 23.35744a52.34688 52.34688 0 0 1-72.87808 9.6256l-35.39968-26.79808a51.11808 51.11808 0 0 1-9.71776-72.15104l18.04288-23.36768a52.35712 52.35712 0 0 1 72.88832-9.61536z" fill="#D1785B" p-id="2749"></path><path d="M797.6448 294.56384l117.99552 89.33376-397.056 513.95584-118.00576-89.33376z" fill="#EBC24C" p-id="2750"></path><path d="M880.24064 357.09952l35.39968 26.79808-397.056 513.95584-35.39968-26.80832z" fill="#E5AD4C" p-id="2751"></path><path d="M797.6448 294.56384l35.39968 26.79808-397.07648 513.95584-35.39968-26.79808z" fill="#E5AD4C" p-id="2752"></path><path d="M369.33632 969.99424l31.24224-161.47456 118.00576 89.33376z" fill="#F1DEB3" p-id="2753"></path><path d="M368.67072 972.8l31.90784-164.28032 35.39968 26.79808z" fill="#E9CE96" p-id="2754"></path><path d="M369.33632 969.99424l149.248-72.1408-34.816-26.37824z" fill="#E9CE96" p-id="2755"></path><path d="M406.40512 843.33568l-1.31072-40.66304 41.29792 31.27296z" fill="#E5AD4C" p-id="2756"></path><path d="M483.072 901.40672l-1.31072-40.66304 41.29792 31.26272z" fill="#E5AD4C" p-id="2757"></path><path d="M441.52832 876.544l-1.024-47.104 47.19616 35.72736z" fill="#EBC24C" p-id="2758"></path><path d="M371.01568 967.33184l7.43424-44.12416 29.696 29.41952z" fill="#706562" p-id="2759"></path></svg>